<svg width="43" height="26" viewBox="0 0 43 26" fill="none" xmlns="http://www.w3.org/2000/svg">
<rect width="43" height="26" rx="5" fill="#2C2C35"/>
<path d="M24.3152 19.2278H17.6953V7.77142H24.3152V19.2278Z" fill="#FF5F00"/>
<path d="M18.1199 13.4995C18.1199 11.1755 19.2499 9.10541 21.0095 7.77134C19.7227 6.7958 18.0987 6.21353 16.3338 6.21353C12.1555 6.21353 8.76855 9.47553 8.76855 13.4995C8.76855 17.5235 12.1555 20.7855 16.3338 20.7855C18.0987 20.7855 19.7227 20.2033 21.0095 19.2277C19.2499 17.8936 18.1199 15.8235 18.1199 13.4995Z" fill="#EB001B"/>
<path d="M33.2444 13.4995C33.2444 17.5235 29.8574 20.7855 25.6791 20.7855C23.9142 20.7855 22.2902 20.2033 21.0029 19.2277C22.763 17.8936 23.893 15.8235 23.893 13.4995C23.893 11.1755 22.763 9.10541 21.0029 7.77134C22.2902 6.7958 23.9142 6.21353 25.6791 6.21353C29.8574 6.21353 33.2444 9.47553 33.2444 13.4995Z" fill="#F79E1B"/>
</svg>
