<svg width="43" height="26" viewBox="0 0 43 26" fill="none" xmlns="http://www.w3.org/2000/svg">
<rect width="43" height="26" rx="5" fill="#2C2C35"/>
<path d="M32.9998 17.8701L32.7466 16.5653H29.9184L29.4684 17.8608L27.2015 17.8655C28.2807 15.19 29.3622 12.5155 30.446 9.84201C30.6305 9.38853 30.9579 9.15773 31.4405 9.16005C31.8095 9.16353 32.4114 9.16353 33.2472 9.16121L35 17.8666L32.9998 17.8701ZM30.5551 14.7781H32.3776L31.697 11.5075L30.5551 14.7781ZM15.9425 9.15889L18.2218 9.16121L14.6982 17.8713L12.3909 17.8689C11.8107 15.5683 11.2377 13.2657 10.6719 10.9612C10.5594 10.5019 10.3366 10.1807 9.908 10.0287C9.52662 9.89304 8.891 9.68428 8 9.40013V9.16237H11.6416C12.2716 9.16237 12.6395 9.47668 12.7576 10.1215C12.8769 10.7675 13.1761 12.4121 13.6576 15.0553L15.9425 9.15889ZM21.3537 9.16121L19.5515 17.8689L17.3825 17.8666L19.1825 9.15889L21.3537 9.16121ZM25.7525 9C26.4016 9 27.2195 9.20876 27.6898 9.40013L27.3095 11.2059C26.8842 11.0296 26.1845 10.7919 25.5961 10.8C24.7411 10.8151 24.2124 11.1851 24.2124 11.5399C24.2124 12.1175 25.1304 12.4086 26.0754 13.0396C27.1542 13.7586 27.296 14.4046 27.2825 15.1063C27.2679 16.563 26.0754 18 23.5599 18C22.4124 17.9826 21.9984 17.8829 21.0624 17.5407L21.4584 15.6561C22.4113 16.0678 22.8151 16.1988 23.6296 16.1988C24.3755 16.1988 25.0156 15.888 25.0213 15.3464C25.0258 14.9613 24.7962 14.77 23.9592 14.2945C23.1222 13.8178 21.9477 13.1579 21.9635 11.8334C21.9826 10.1378 23.5408 9 25.7536 9H25.7525Z" fill="white"/>
</svg>
