<svg width="33" height="32" viewBox="0 0 33 32" fill="none" xmlns="http://www.w3.org/2000/svg">
<circle cx="16.3334" cy="16" r="16" fill="#4807EA"/>
<g clip-path="url(#clip0_1200_1448)">
<path d="M23 17V22C23 22.1768 22.9298 22.3464 22.8048 22.4714C22.6798 22.5964 22.5102 22.6667 22.3334 22.6667H21.6667C21.4899 22.6667 21.3203 22.5964 21.1953 22.4714C21.0703 22.3464 21 22.1768 21 22V21.3333H11.6667V22C11.6667 22.1768 11.5965 22.3464 11.4714 22.4714C11.3464 22.5964 11.1769 22.6667 11 22.6667H10.3334C10.1566 22.6667 9.98699 22.5964 9.86197 22.4714C9.73695 22.3464 9.66671 22.1768 9.66671 22V17L8.83804 16.7933C8.69388 16.7572 8.56591 16.674 8.47448 16.5568C8.38304 16.4396 8.33338 16.2953 8.33337 16.1467V15.6667C8.33337 15.5783 8.36849 15.4935 8.43101 15.431C8.49352 15.3684 8.5783 15.3333 8.66671 15.3333H9.91671L11.342 11.532C11.4373 11.2778 11.6079 11.0587 11.8311 10.9041C12.0542 10.7495 12.3192 10.6666 12.5907 10.6667H20.076C20.3475 10.6666 20.6125 10.7495 20.8357 10.9041C21.0588 11.0587 21.2294 11.2778 21.3247 11.532L22.75 15.3333H24C24.0884 15.3333 24.1732 15.3684 24.2357 15.431C24.2983 15.4935 24.3334 15.5783 24.3334 15.6667V16.1467C24.3334 16.2953 24.2837 16.4396 24.1923 16.5568C24.1008 16.674 23.9729 16.7572 23.8287 16.7933L23 17ZM11 18V19.3333C11 19.5101 11.0703 19.6797 11.1953 19.8047C11.3203 19.9298 11.4899 20 11.6667 20H13.83C13.8876 19.9999 13.9442 19.9849 13.9942 19.9565C14.0442 19.928 14.0861 19.8871 14.1156 19.8377C14.1451 19.7883 14.1614 19.7321 14.1627 19.6745C14.1641 19.617 14.1505 19.5601 14.1234 19.5093C13.5867 18.5027 12.5454 18 11 18ZM21.6667 18C20.122 18 19.0807 18.5033 18.5427 19.5093C18.5155 19.5601 18.5019 19.6171 18.5033 19.6747C18.5047 19.7323 18.521 19.7886 18.5506 19.838C18.5803 19.8874 18.6222 19.9283 18.6723 19.9567C18.7224 19.9851 18.7791 20 18.8367 20H21C21.1769 20 21.3464 19.9298 21.4714 19.8047C21.5965 19.6797 21.6667 19.5101 21.6667 19.3333V18ZM12.3334 12L11.2927 15.1227C11.2593 15.2228 11.2502 15.3295 11.2662 15.4339C11.2821 15.5382 11.3226 15.6373 11.3843 15.723C11.446 15.8087 11.5272 15.8784 11.6211 15.9266C11.7151 15.9748 11.8191 15.9999 11.9247 16H20.742C20.8476 15.9999 20.9517 15.9748 21.0456 15.9266C21.1396 15.8784 21.2208 15.8087 21.2825 15.723C21.3442 15.6373 21.3847 15.5382 21.4006 15.4339C21.4165 15.3295 21.4074 15.2228 21.374 15.1227L20.3334 12H12.3334Z" fill="white"/>
</g>
<defs>
<clipPath id="clip0_1200_1448">
<rect width="16" height="16" fill="white" transform="translate(8.33337 8)"/>
</clipPath>
</defs>
</svg>
