<svg width="33" height="32" viewBox="0 0 33 32" fill="none" xmlns="http://www.w3.org/2000/svg">
<circle cx="16.3334" cy="16" r="16" fill="#40404A"/>
<path d="M19.6667 10.6667C20.7275 10.6667 21.7449 11.0881 22.4951 11.8382C23.2452 12.5884 23.6667 13.6058 23.6667 14.6667V17.3333C23.6667 18.3942 23.2452 19.4116 22.4951 20.1617C21.7449 20.9119 20.7275 21.3333 19.6667 21.3333H13C11.9391 21.3333 10.9217 20.9119 10.1716 20.1617C9.42143 19.4116 9 18.3942 9 17.3333V14.6667C9 13.6058 9.42143 12.5884 10.1716 11.8382C10.9217 11.0881 11.9391 10.6667 13 10.6667H19.6667ZM15 14H13.6667V15.3333H12.3333V16.6667H13.666L13.6667 18H15L14.9993 16.6667H16.3333V15.3333H15V14ZM20.3333 16.6667H19V18H20.3333V16.6667ZM19 14H17.6667V15.3333H19V14Z" fill="white"/>
</svg>
