<svg width="32" height="32" viewBox="0 0 32 32" fill="none" xmlns="http://www.w3.org/2000/svg">
<rect width="32" height="32" rx="8.72727" fill="#0F0F13"/>
<path d="M22 9.33334V22.6667H20.6667V17.3333H18.6667V12.6667C18.6667 11.7826 19.0179 10.9348 19.643 10.3097C20.2681 9.68453 21.1159 9.33334 22 9.33334V9.33334ZM14 17.2667V22.6667H12.6667V17.2667C11.9139 17.1128 11.2373 16.7036 10.7514 16.1084C10.2655 15.5131 10.0001 14.7684 10 14V10H11.3333V14.6667H12.6667V10H14V14.6667H15.3333V10H16.6667V14C16.6666 14.7684 16.4011 15.5131 15.9152 16.1084C15.4293 16.7036 14.7528 17.1128 14 17.2667V17.2667Z" fill="white"/>
</svg>
