<svg width="32" height="32" viewBox="0 0 32 32" fill="none" xmlns="http://www.w3.org/2000/svg">
<rect width="32" height="32" rx="8.72727" fill="#0F0F13"/>
<path d="M19.3333 10.6667C20.3942 10.6667 21.4116 11.0881 22.1618 11.8382C22.9119 12.5884 23.3333 13.6058 23.3333 14.6667V17.3333C23.3333 18.3942 22.9119 19.4116 22.1618 20.1618C21.4116 20.9119 20.3942 21.3333 19.3333 21.3333H12.6667C11.6058 21.3333 10.5884 20.9119 9.83823 20.1618C9.08808 19.4116 8.66666 18.3942 8.66666 17.3333V14.6667C8.66666 13.6058 9.08808 12.5884 9.83823 11.8382C10.5884 11.0881 11.6058 10.6667 12.6667 10.6667H19.3333ZM14.6667 14H13.3333V15.3333H12V16.6667H13.3327L13.3333 18H14.6667L14.666 16.6667H16V15.3333H14.6667V14ZM20 16.6667H18.6667V18H20V16.6667ZM18.6667 14H17.3333V15.3333H18.6667V14Z" fill="white"/>
</svg>
