<svg width="32" height="32" viewBox="0 0 32 32" fill="none" xmlns="http://www.w3.org/2000/svg">
<rect width="32" height="32" rx="8.72727" fill="#0F0F13"/>
<path d="M18.6667 8.66669C19.0347 8.66669 19.3333 8.96535 19.3333 9.33335V11.3334H22C22.368 11.3334 22.6667 11.632 22.6667 12V21.3334C22.6667 21.7014 22.368 22 22 22H10C9.63201 22 9.33334 21.7014 9.33334 21.3334V12C9.33334 11.632 9.63201 11.3334 10 11.3334H12.6667V9.33335C12.6667 8.96535 12.9653 8.66669 13.3333 8.66669H18.6667ZM16.6667 14H15.3333V16H13.3333V17.3334H15.3327L15.3333 19.3334H16.6667L16.666 17.3334H18.6667V16H16.6667V14ZM18 10H14V11.3334H18V10Z" fill="white"/>
</svg>
