<svg width="32" height="32" viewBox="0 0 32 32" fill="none" xmlns="http://www.w3.org/2000/svg">
<rect width="32" height="32" rx="8.72727" fill="#0F0F13"/>
<path d="M11.3333 10H21.3333C21.687 10 22.0261 10.1405 22.2762 10.3905C22.5262 10.6406 22.6667 10.9797 22.6667 11.3333V13.3333C22.6667 13.687 22.5262 14.0261 22.2762 14.2761C22.0261 14.5262 21.687 14.6667 21.3333 14.6667H20V16.6667C20 17.3739 19.7191 18.0522 19.219 18.5523C18.7189 19.0524 18.0406 19.3333 17.3333 19.3333H13.3333C12.6261 19.3333 11.9478 19.0524 11.4477 18.5523C10.9476 18.0522 10.6667 17.3739 10.6667 16.6667V10.6667C10.6667 10.4899 10.7369 10.3203 10.8619 10.1953C10.987 10.0702 11.1565 10 11.3333 10ZM20 11.3333V13.3333H21.3333V11.3333H20ZM9.33334 20.6667H21.3333V22H9.33334V20.6667Z" fill="#F5F5FF"/>
</svg>
