<svg width="82" height="36" viewBox="0 0 82 36" fill="none" xmlns="http://www.w3.org/2000/svg">
<rect x="0.5" y="0.5" width="35" height="35" rx="5.5" stroke="white"/>
<path d="M16.5882 24.6667H12V11.3333H16.5882V8H19.6471V11.3333H21.1765C21.8865 11.3333 22.5826 11.5488 23.1866 11.9556C23.7906 12.3624 24.2788 12.9445 24.5963 13.6366C24.9139 14.3287 25.0483 15.1035 24.9845 15.8742C24.9208 16.6449 24.6613 17.381 24.2353 18C24.6613 18.619 24.9208 19.3551 24.9845 20.1258C25.0483 20.8965 24.9139 21.6713 24.5963 22.3634C24.2788 23.0555 23.7906 23.6376 23.1866 24.0444C22.5826 24.4512 21.8865 24.6667 21.1765 24.6667H19.6471V28H16.5882V24.6667ZM15.0588 19.6667V21.3333H21.1765C21.3793 21.3333 21.5738 21.2455 21.7172 21.0893C21.8606 20.933 21.9412 20.721 21.9412 20.5C21.9412 20.279 21.8606 20.067 21.7172 19.9107C21.5738 19.7545 21.3793 19.6667 21.1765 19.6667H15.0588ZM15.0588 14.6667V16.3333H21.1765C21.3793 16.3333 21.5738 16.2455 21.7172 16.0893C21.8606 15.933 21.9412 15.721 21.9412 15.5C21.9412 15.279 21.8606 15.067 21.7172 14.9107C21.5738 14.7545 21.3793 14.6667 21.1765 14.6667H15.0588Z" fill="white"/>
<path d="M47.5852 25V11.9091H52.1619C53.0739 11.9091 53.826 12.0668 54.4183 12.3821C55.0107 12.6932 55.4517 13.1129 55.7415 13.6413C56.0313 14.1655 56.1761 14.7472 56.1761 15.3864C56.1761 15.9489 56.076 16.4134 55.8757 16.7798C55.6797 17.1463 55.4197 17.4361 55.0959 17.6491C54.7763 17.8622 54.429 18.0199 54.054 18.1222V18.25C54.4545 18.2756 54.8572 18.4162 55.2621 18.6719C55.6669 18.9276 56.0057 19.294 56.2784 19.7713C56.5511 20.2486 56.6875 20.8324 56.6875 21.5227C56.6875 22.179 56.5384 22.7692 56.2401 23.2933C55.9418 23.8175 55.4709 24.233 54.8274 24.5398C54.1839 24.8466 53.3466 25 52.3153 25H47.5852ZM49.1705 23.5938H52.3153C53.3509 23.5938 54.0859 23.3935 54.5206 22.9929C54.9595 22.5881 55.179 22.098 55.179 21.5227C55.179 21.0795 55.0661 20.6705 54.8402 20.2955C54.6143 19.9162 54.2926 19.6136 53.875 19.3878C53.4574 19.1577 52.9631 19.0426 52.392 19.0426H49.1705V23.5938ZM49.1705 17.6619H52.1108C52.5881 17.6619 53.0185 17.5682 53.402 17.3807C53.7898 17.1932 54.0966 16.929 54.3224 16.5881C54.5526 16.2472 54.6676 15.8466 54.6676 15.3864C54.6676 14.8111 54.4673 14.3232 54.0668 13.9226C53.6662 13.5178 53.0313 13.3153 52.1619 13.3153H49.1705V17.6619ZM58.5763 13.3153V11.9091H68.3945V13.3153H64.2781V25H62.6928V13.3153H58.5763ZM80.8303 16H79.245C79.1513 15.544 78.9872 15.1435 78.7528 14.7983C78.5227 14.4531 78.2415 14.1634 77.9091 13.929C77.581 13.6903 77.2166 13.5114 76.8161 13.392C76.4155 13.2727 75.9979 13.2131 75.5632 13.2131C74.7706 13.2131 74.0526 13.4134 73.4091 13.8139C72.7699 14.2145 72.2607 14.8047 71.8814 15.5845C71.5064 16.3643 71.3189 17.321 71.3189 18.4545C71.3189 19.5881 71.5064 20.5447 71.8814 21.3246C72.2607 22.1044 72.7699 22.6946 73.4091 23.0952C74.0526 23.4957 74.7706 23.696 75.5632 23.696C75.9979 23.696 76.4155 23.6364 76.8161 23.517C77.2166 23.3977 77.581 23.2209 77.9091 22.9865C78.2415 22.7479 78.5227 22.456 78.7528 22.1108C78.9872 21.7614 79.1513 21.3608 79.245 20.9091H80.8303C80.7109 21.5781 80.4936 22.1768 80.1783 22.7053C79.8629 23.2337 79.4709 23.6832 79.0021 24.054C78.5334 24.4205 78.0071 24.6996 77.4233 24.8913C76.8438 25.0831 76.2237 25.179 75.5632 25.179C74.4467 25.179 73.4538 24.9062 72.5845 24.3608C71.7152 23.8153 71.0313 23.0398 70.5327 22.0341C70.0341 21.0284 69.7848 19.8352 69.7848 18.4545C69.7848 17.0739 70.0341 15.8807 70.5327 14.875C71.0313 13.8693 71.7152 13.0938 72.5845 12.5483C73.4538 12.0028 74.4467 11.7301 75.5632 11.7301C76.2237 11.7301 76.8438 11.826 77.4233 12.0178C78.0071 12.2095 78.5334 12.4908 79.0021 12.8615C79.4709 13.228 79.8629 13.6754 80.1783 14.2038C80.4936 14.728 80.7109 15.3267 80.8303 16Z" fill="white"/>
</svg>
