<svg width="36" height="36" viewBox="0 0 36 36" fill="none" xmlns="http://www.w3.org/2000/svg">
<rect x="0.5" y="0.5" width="35" height="35" rx="5.5" stroke="white"/>
<path d="M16.5882 24.6667H12V11.3333H16.5882V8H19.6471V11.3333H21.1765C21.8865 11.3333 22.5826 11.5488 23.1866 11.9556C23.7906 12.3624 24.2788 12.9445 24.5963 13.6366C24.9139 14.3287 25.0483 15.1035 24.9845 15.8742C24.9208 16.6449 24.6613 17.381 24.2353 18C24.6613 18.619 24.9208 19.3551 24.9845 20.1258C25.0483 20.8965 24.9139 21.6713 24.5963 22.3634C24.2788 23.0555 23.7906 23.6376 23.1866 24.0444C22.5826 24.4512 21.8865 24.6667 21.1765 24.6667H19.6471V28H16.5882V24.6667ZM15.0588 19.6667V21.3333H21.1765C21.3793 21.3333 21.5738 21.2455 21.7172 21.0893C21.8606 20.933 21.9412 20.721 21.9412 20.5C21.9412 20.279 21.8606 20.067 21.7172 19.9107C21.5738 19.7545 21.3793 19.6667 21.1765 19.6667H15.0588ZM15.0588 14.6667V16.3333H21.1765C21.3793 16.3333 21.5738 16.2455 21.7172 16.0893C21.8606 15.933 21.9412 15.721 21.9412 15.5C21.9412 15.279 21.8606 15.067 21.7172 14.9107C21.5738 14.7545 21.3793 14.6667 21.1765 14.6667H15.0588Z" fill="white"/>
</svg>
