<svg width="83" height="36" viewBox="0 0 83 36" fill="none" xmlns="http://www.w3.org/2000/svg">
<rect x="0.5" y="0.5" width="35" height="35" rx="5.5" stroke="#40404A"/>
<path d="M14.7832 16.2017H24.1689V19.8018H14.7832C14.9474 20.5675 15.3188 21.2793 15.8608 21.8673C16.4028 22.4553 17.0968 22.8992 17.8743 23.1553C18.6519 23.4114 19.4863 23.4709 20.2954 23.328C21.1046 23.185 21.8605 22.8445 22.489 22.34L25.7124 24.3795C24.6048 25.5242 23.1736 26.3422 21.5897 26.7359C20.0057 27.1296 18.3359 27.0823 16.7795 26.5997C15.2231 26.1171 13.8459 25.2196 12.8121 24.0142C11.7783 22.8089 11.1316 21.3466 10.9492 19.8018H9V16.2017H10.9473C11.1291 14.6562 11.7756 13.193 12.8096 11.9869C13.8437 10.7808 15.2215 9.88281 16.7787 9.40011C18.3358 8.91741 20.0064 8.87043 21.5909 9.26478C23.1754 9.65913 24.6069 10.4781 25.7143 11.624L22.489 13.6635C21.8605 13.159 21.1046 12.8185 20.2954 12.6755C19.4863 12.5326 18.6519 12.5921 17.8743 12.8482C17.0968 13.1043 16.4028 13.5482 15.8608 14.1362C15.3188 14.7242 14.9474 15.436 14.7832 16.2017Z" fill="white"/>
<path d="M47.5852 25V11.9091H55.4858V13.3153H49.1705V17.7386H55.0767V19.1449H49.1705V23.5938H55.5881V25H47.5852ZM66.9339 11.9091H68.5192V20.5767C68.5192 21.4716 68.3082 22.2706 67.8864 22.9737C67.4688 23.6726 66.8786 24.2244 66.1158 24.6293C65.353 25.0298 64.4581 25.2301 63.4311 25.2301C62.4041 25.2301 61.5092 25.0298 60.7464 24.6293C59.9837 24.2244 59.3913 23.6726 58.9695 22.9737C58.5518 22.2706 58.343 21.4716 58.343 20.5767V11.9091H59.9283V20.4489C59.9283 21.0881 60.0689 21.657 60.3501 22.1555C60.6314 22.6499 61.032 23.0398 61.5518 23.3253C62.076 23.6065 62.7024 23.7472 63.4311 23.7472C64.1598 23.7472 64.7862 23.6065 65.3104 23.3253C65.8345 23.0398 66.2351 22.6499 66.5121 22.1555C66.7933 21.657 66.9339 21.0881 66.9339 20.4489V11.9091ZM71.6848 25V11.9091H76.1081C77.1309 11.9091 77.9703 12.0838 78.6266 12.4332C79.2828 12.7784 79.7686 13.2536 80.084 13.8587C80.3993 14.4638 80.557 15.152 80.557 15.9233C80.557 16.6946 80.3993 17.3786 80.084 17.9751C79.7686 18.5717 79.285 19.0405 78.633 19.3814C77.981 19.718 77.1479 19.8864 76.1337 19.8864H72.5542V18.4545H76.0826C76.7814 18.4545 77.3439 18.3523 77.7701 18.1477C78.2005 17.9432 78.5115 17.6534 78.7033 17.2784C78.8993 16.8991 78.9973 16.4474 78.9973 15.9233C78.9973 15.3991 78.8993 14.9411 78.7033 14.549C78.5073 14.157 78.1941 13.8544 77.7637 13.6413C77.3333 13.424 76.7644 13.3153 76.057 13.3153H73.2701V25H71.6848ZM77.8468 19.1193L81.0684 25H79.2275L76.057 19.1193H77.8468Z" fill="#8A8A98"/>
</svg>
