<svg width="36" height="36" viewBox="0 0 36 36" fill="none" xmlns="http://www.w3.org/2000/svg">
<rect x="0.5" y="0.5" width="35" height="35" rx="5.5" stroke="#40404A"/>
<path d="M14.7832 16.2017H24.1689V19.8018H14.7832C14.9474 20.5675 15.3188 21.2793 15.8608 21.8673C16.4028 22.4553 17.0968 22.8992 17.8743 23.1553C18.6519 23.4114 19.4863 23.4709 20.2954 23.328C21.1046 23.185 21.8605 22.8445 22.489 22.34L25.7124 24.3795C24.6048 25.5242 23.1736 26.3422 21.5897 26.7359C20.0057 27.1296 18.3359 27.0823 16.7795 26.5997C15.2231 26.1171 13.8459 25.2196 12.8121 24.0142C11.7783 22.8089 11.1316 21.3466 10.9492 19.8018H9V16.2017H10.9473C11.1291 14.6562 11.7756 13.193 12.8096 11.9869C13.8437 10.7808 15.2215 9.88281 16.7787 9.40011C18.3358 8.91741 20.0064 8.87043 21.5909 9.26478C23.1754 9.65913 24.6069 10.4781 25.7143 11.624L22.489 13.6635C21.8605 13.159 21.1046 12.8185 20.2954 12.6755C19.4863 12.5326 18.6519 12.5921 17.8743 12.8482C17.0968 13.1043 16.4028 13.5482 15.8608 14.1362C15.3188 14.7242 14.9474 15.436 14.7832 16.2017Z" fill="white"/>
</svg>
