<svg width="130" height="31" viewBox="0 0 130 31" fill="none" xmlns="http://www.w3.org/2000/svg">
<rect width="30.7231" height="30.7231" rx="8.9418" fill="url(#paint0_linear_992_16568)"/>
<path fill-rule="evenodd" clip-rule="evenodd" d="M7.3246 16.54C6.89179 16.3389 6.8918 15.6555 7.32463 15.4545C10.4622 13.9971 12.9977 11.4619 14.4554 8.32455C14.6565 7.89181 15.3397 7.89182 15.5407 8.32456C16.9984 11.4619 19.5337 13.997 22.6711 15.4544C23.1039 15.6554 23.1039 16.3388 22.6711 16.5399C19.5334 17.9974 16.998 20.5328 15.5405 23.6703C15.3394 24.1031 14.6561 24.1031 14.455 23.6703C12.9974 20.5328 10.4621 17.9975 7.3246 16.54Z" fill="#0C0012"/>
<path fill-rule="evenodd" clip-rule="evenodd" d="M19.403 9.24414C19.1484 9.10842 19.1484 8.67985 19.403 8.54415C20.402 8.0116 21.2236 7.19008 21.7562 6.19115C21.892 5.93665 22.3204 5.93665 22.4561 6.19116C22.9887 7.19001 23.8102 8.01149 24.8091 8.54404C25.0637 8.67976 25.0637 9.10832 24.8091 9.24403C23.8101 9.77664 22.9885 10.5982 22.4559 11.5972C22.3202 11.8518 21.8917 11.8518 21.756 11.5972C21.2234 10.5983 20.4019 9.77675 19.403 9.24414Z" fill="#0C0012"/>
<path d="M39.9288 21.7515V6.84368H51.4031V8.62566H41.9933V13.2327H50.4469V15.0147H41.9933V19.9695H51.5334V21.7515H39.9288ZM61.0031 22.0122C59.4819 22.0122 58.1925 21.737 57.1349 21.1864C56.0773 20.6214 55.266 19.7739 54.701 18.6439C54.1504 17.4993 53.8752 16.0506 53.8752 14.2976C53.8752 11.7043 54.5054 9.77018 55.7658 8.49527C57.0262 7.22036 58.7792 6.5829 61.0248 6.5829C62.2997 6.5829 63.4298 6.79297 64.4149 7.21311C65.4001 7.61877 66.1679 8.24174 66.7185 9.08202C67.2835 9.90782 67.566 10.9509 67.566 12.2114H65.4798C65.4798 11.3421 65.2914 10.625 64.9148 10.0599C64.5526 9.49492 64.0383 9.07478 63.3718 8.79951C62.7054 8.50976 61.9231 8.36488 61.0248 8.36488C59.9817 8.36488 59.0835 8.56771 58.3301 8.97336C57.5768 9.37902 57.0045 10.0092 56.6133 10.864C56.2222 11.7043 56.0266 12.7909 56.0266 14.1237V14.5801C56.0266 15.8985 56.2222 16.9778 56.6133 17.8181C57.0045 18.6439 57.5695 19.2523 58.3084 19.6435C59.0618 20.0347 59.9672 20.2303 61.0248 20.2303C61.952 20.2303 62.7489 20.0926 63.4153 19.8174C64.0962 19.5421 64.6178 19.122 64.98 18.5569C65.3566 17.9774 65.545 17.2531 65.545 16.3838H67.566C67.566 17.6732 67.2763 18.7308 66.6967 19.5566C66.1317 20.3824 65.3566 20.9981 64.3715 21.4038C63.3863 21.8094 62.2635 22.0122 61.0031 22.0122ZM70.4463 21.7515V6.84368H72.5108V19.9478H79.9212V21.7515H70.4463ZM82.0972 21.7515V6.84368H84.1617V21.7515H82.0972ZM87.8909 21.7515V6.84368H95.2578C96.2865 6.84368 97.1412 7.03926 97.8221 7.43043C98.5031 7.80711 99.0101 8.33591 99.3433 9.01683C99.691 9.69775 99.8649 10.4873 99.8649 11.3856C99.8649 12.2983 99.6766 13.1096 99.2999 13.8195C98.9232 14.5149 98.3872 15.0582 97.6918 15.4493C97.0108 15.8405 96.1923 16.0361 95.2361 16.0361H89.9554V21.7515H87.8909ZM89.9554 14.2541H95.1057C95.917 14.2541 96.5617 14.0006 97.0398 13.4935C97.5324 12.9864 97.7787 12.291 97.7787 11.4073C97.7787 10.8133 97.6773 10.3135 97.4744 9.90782C97.2716 9.50216 96.9746 9.19068 96.5834 8.97336C96.1923 8.74156 95.6997 8.62566 95.1057 8.62566H89.9554V14.2541ZM107.819 22.0122C107.008 22.0122 106.226 21.9326 105.472 21.7732C104.734 21.6138 104.074 21.3603 103.495 21.0126C102.915 20.6504 102.452 20.1868 102.104 19.6218C101.771 19.0568 101.604 18.3614 101.604 17.5356C101.604 17.4631 101.604 17.3907 101.604 17.3182C101.619 17.2458 101.626 17.1734 101.626 17.1009H103.712C103.712 17.1444 103.705 17.2168 103.69 17.3182C103.69 17.4052 103.69 17.4849 103.69 17.5573C103.69 18.1368 103.864 18.6294 104.212 19.035C104.56 19.4407 105.038 19.7449 105.646 19.9478C106.269 20.1361 106.972 20.2303 107.754 20.2303C108.102 20.2303 108.464 20.2085 108.841 20.1651C109.232 20.1216 109.601 20.0492 109.949 19.9478C110.311 19.8319 110.63 19.687 110.905 19.5131C111.195 19.3248 111.42 19.1002 111.579 18.8394C111.753 18.5642 111.84 18.231 111.84 17.8398C111.84 17.3472 111.695 16.9416 111.405 16.6228C111.13 16.2896 110.76 16.0216 110.297 15.8188C109.833 15.6015 109.304 15.4131 108.71 15.2538C108.131 15.0799 107.53 14.9133 106.907 14.7539C106.284 14.5946 105.675 14.4135 105.081 14.2106C104.502 13.9933 103.98 13.7326 103.517 13.4283C103.053 13.1096 102.676 12.7184 102.387 12.2548C102.111 11.7912 101.974 11.2262 101.974 10.5598C101.974 9.93679 102.097 9.37902 102.343 8.88644C102.604 8.39386 102.981 7.98096 103.473 7.64774C103.98 7.30004 104.603 7.03926 105.342 6.86541C106.081 6.67707 106.928 6.5829 107.885 6.5829C108.667 6.5829 109.391 6.66983 110.058 6.84368C110.739 7.00304 111.333 7.25658 111.84 7.60428C112.361 7.9375 112.767 8.36488 113.057 8.88644C113.347 9.40799 113.491 10.0382 113.491 10.7771V11.0379H111.449V10.7119C111.449 10.2193 111.297 9.79916 110.992 9.45146C110.688 9.10375 110.268 8.83573 109.732 8.64739C109.21 8.45905 108.616 8.36488 107.95 8.36488C107.081 8.36488 106.356 8.45181 105.777 8.62566C105.197 8.78502 104.763 9.02407 104.473 9.3428C104.198 9.64704 104.06 9.99474 104.06 10.3859C104.06 10.835 104.198 11.2117 104.473 11.5159C104.763 11.8202 105.139 12.0737 105.603 12.2765C106.066 12.4649 106.595 12.6387 107.189 12.7981C107.783 12.9575 108.384 13.1241 108.993 13.2979C109.616 13.4573 110.217 13.6456 110.797 13.8629C111.391 14.0658 111.919 14.3265 112.383 14.6453C112.861 14.9495 113.238 15.3407 113.513 15.8188C113.788 16.2824 113.926 16.8546 113.926 17.5356C113.926 18.5932 113.665 19.4552 113.144 20.1216C112.622 20.7735 111.905 21.2516 110.992 21.5559C110.08 21.8601 109.022 22.0122 107.819 22.0122ZM116.965 21.7515V6.84368H128.439V8.62566H119.03V13.2327H127.483V15.0147H119.03V19.9695H128.57V21.7515H116.965Z" fill="white"/>
<defs>
<linearGradient id="paint0_linear_992_16568" x1="27.5" y1="31" x2="3" y2="-2" gradientUnits="userSpaceOnUse">
<stop stop-color="#FF0F0F"/>
<stop offset="1" stop-color="#8F5BFF"/>
</linearGradient>
</defs>
</svg>
