<svg width="48" height="48" viewBox="0 0 48 48" fill="none" xmlns="http://www.w3.org/2000/svg">
<path d="M30.5909 35.0335H18.4352V13.1876H30.5909V35.0335Z" fill="#FF5F00"/>
<path d="M19.2149 24.1109C19.2149 19.6794 21.2898 15.7319 24.5209 13.188C22.1581 11.3277 19.1761 10.2174 15.9352 10.2174C8.26281 10.2174 2.04346 16.4376 2.04346 24.1109C2.04346 31.7842 8.26281 38.0044 15.9352 38.0044C19.1761 38.0044 22.1581 36.8941 24.5209 35.0339C21.2898 32.4899 19.2149 28.5425 19.2149 24.1109Z" fill="#EB001B"/>
<path d="M46.9875 24.1109C46.9875 31.7842 40.7682 38.0044 33.0958 38.0044C29.8549 38.0044 26.8729 36.8941 24.5092 35.0339C27.7412 32.4899 29.8161 28.5425 29.8161 24.1109C29.8161 19.6794 27.7412 15.7319 24.5092 13.188C26.8729 11.3277 29.8549 10.2174 33.0958 10.2174C40.7682 10.2174 46.9875 16.4376 46.9875 24.1109Z" fill="#F79E1B"/>
</svg>
