<svg width="84" height="36" viewBox="0 0 84 36" fill="none" xmlns="http://www.w3.org/2000/svg">
<rect x="0.5" y="0.5" width="35" height="35" rx="5.5" stroke="white"/>
<path d="M12.6667 21.3333H21.8333C22.0543 21.3333 22.2663 21.2455 22.4226 21.0893C22.5789 20.933 22.6667 20.721 22.6667 20.5C22.6667 20.279 22.5789 20.067 22.4226 19.9107C22.2663 19.7545 22.0543 19.6667 21.8333 19.6667H15.1667C14.0616 19.6667 13.0018 19.2277 12.2204 18.4463C11.439 17.6649 11 16.6051 11 15.5C11 14.3949 11.439 13.3351 12.2204 12.5537C13.0018 11.7723 14.0616 11.3333 15.1667 11.3333H16.8333V8H20.1667V11.3333H24.3333V14.6667H15.1667C14.9457 14.6667 14.7337 14.7545 14.5774 14.9107C14.4211 15.067 14.3333 15.279 14.3333 15.5C14.3333 15.721 14.4211 15.933 14.5774 16.0893C14.7337 16.2455 14.9457 16.3333 15.1667 16.3333H21.8333C22.9384 16.3333 23.9982 16.7723 24.7796 17.5537C25.561 18.3351 26 19.3949 26 20.5C26 21.6051 25.561 22.6649 24.7796 23.4463C23.9982 24.2277 22.9384 24.6667 21.8333 24.6667H20.1667V28H16.8333V24.6667H12.6667V21.3333Z" fill="white"/>
<path d="M56.1761 11.9091H57.7614V20.5767C57.7614 21.4716 57.5504 22.2706 57.1286 22.9737C56.7109 23.6726 56.1207 24.2244 55.358 24.6293C54.5952 25.0298 53.7003 25.2301 52.6733 25.2301C51.6463 25.2301 50.7514 25.0298 49.9886 24.6293C49.2259 24.2244 48.6335 23.6726 48.2116 22.9737C47.794 22.2706 47.5852 21.4716 47.5852 20.5767V11.9091H49.1705V20.4489C49.1705 21.0881 49.3111 21.657 49.5923 22.1555C49.8736 22.6499 50.2741 23.0398 50.794 23.3253C51.3182 23.6065 51.9446 23.7472 52.6733 23.7472C53.402 23.7472 54.0284 23.6065 54.5526 23.3253C55.0767 23.0398 55.4773 22.6499 55.7543 22.1555C56.0355 21.657 56.1761 21.0881 56.1761 20.4489V11.9091ZM68.0861 15.1818C68.0094 14.5341 67.6983 14.0312 67.1529 13.6733C66.6074 13.3153 65.9384 13.1364 65.1458 13.1364C64.5662 13.1364 64.0591 13.2301 63.6245 13.4176C63.1941 13.6051 62.8574 13.8629 62.6145 14.1911C62.3759 14.5192 62.2566 14.892 62.2566 15.3097C62.2566 15.6591 62.3397 15.9595 62.5059 16.2109C62.6763 16.4581 62.8936 16.6648 63.1578 16.831C63.4221 16.9929 63.699 17.1271 63.9888 17.2337C64.2786 17.3359 64.5449 17.419 64.7878 17.483L66.1174 17.8409C66.4583 17.9304 66.8375 18.054 67.2551 18.2116C67.677 18.3693 68.0797 18.5845 68.4632 18.8572C68.851 19.1257 69.1706 19.4709 69.4221 19.8928C69.6735 20.3146 69.7992 20.8324 69.7992 21.446C69.7992 22.1534 69.6138 22.7926 69.2431 23.3636C68.8766 23.9347 68.3397 24.3885 67.6323 24.7251C66.9292 25.0618 66.0748 25.2301 65.0691 25.2301C64.1316 25.2301 63.3198 25.0788 62.6337 24.7763C61.9519 24.4737 61.415 24.0518 61.0229 23.5107C60.6351 22.9695 60.4157 22.3409 60.3645 21.625H62.0009C62.0435 22.1193 62.2097 22.5284 62.4995 22.8523C62.7935 23.1719 63.1642 23.4105 63.6117 23.5682C64.0634 23.7216 64.5492 23.7983 65.0691 23.7983C65.6742 23.7983 66.2175 23.7003 66.699 23.5043C67.1806 23.304 67.562 23.027 67.8432 22.6733C68.1245 22.3153 68.2651 21.8977 68.2651 21.4205C68.2651 20.9858 68.1436 20.6321 67.9007 20.3594C67.6578 20.0866 67.3382 19.8651 66.9419 19.6946C66.5456 19.5241 66.1174 19.375 65.6571 19.2472L64.0463 18.7869C63.0236 18.4929 62.214 18.0732 61.6174 17.5277C61.0208 16.9822 60.7225 16.2685 60.7225 15.3864C60.7225 14.6534 60.9206 14.0142 61.3169 13.4688C61.7175 12.919 62.2544 12.4929 62.9277 12.1903C63.6053 11.8835 64.3617 11.7301 65.1969 11.7301C66.0407 11.7301 66.7907 11.8814 67.4469 12.1839C68.1032 12.4822 68.623 12.8913 69.0066 13.4112C69.3944 13.9311 69.5989 14.5213 69.6202 15.1818H68.0861ZM76.4453 25H72.4055V11.9091H76.6243C77.8942 11.9091 78.9808 12.1712 79.8842 12.6953C80.7876 13.2152 81.4801 13.9631 81.9616 14.9389C82.4432 15.9105 82.6839 17.0739 82.6839 18.429C82.6839 19.7926 82.4411 20.9666 81.9553 21.951C81.4695 22.9311 80.7621 23.6854 79.8331 24.2138C78.9041 24.7379 77.7749 25 76.4453 25ZM73.9908 23.5938H76.343C77.4254 23.5938 78.3224 23.3849 79.0341 22.9673C79.7457 22.5497 80.2763 21.9553 80.6257 21.1839C80.9751 20.4126 81.1499 19.4943 81.1499 18.429C81.1499 17.3722 80.9773 16.4624 80.6321 15.6996C80.2869 14.9325 79.7713 14.3445 79.0852 13.9354C78.3991 13.522 77.5447 13.3153 76.522 13.3153H73.9908V23.5938Z" fill="white"/>
</svg>
