<svg width="36" height="36" viewBox="0 0 36 36" fill="none" xmlns="http://www.w3.org/2000/svg">
<rect x="0.5" y="0.5" width="35" height="35" rx="5.5" stroke="white"/>
<path d="M12.6667 21.3333H21.8333C22.0543 21.3333 22.2663 21.2455 22.4226 21.0893C22.5789 20.933 22.6667 20.721 22.6667 20.5C22.6667 20.279 22.5789 20.067 22.4226 19.9107C22.2663 19.7545 22.0543 19.6667 21.8333 19.6667H15.1667C14.0616 19.6667 13.0018 19.2277 12.2204 18.4463C11.439 17.6649 11 16.6051 11 15.5C11 14.3949 11.439 13.3351 12.2204 12.5537C13.0018 11.7723 14.0616 11.3333 15.1667 11.3333H16.8333V8H20.1667V11.3333H24.3333V14.6667H15.1667C14.9457 14.6667 14.7337 14.7545 14.5774 14.9107C14.4211 15.067 14.3333 15.279 14.3333 15.5C14.3333 15.721 14.4211 15.933 14.5774 16.0893C14.7337 16.2455 14.9457 16.3333 15.1667 16.3333H21.8333C22.9384 16.3333 23.9982 16.7723 24.7796 17.5537C25.561 18.3351 26 19.3949 26 20.5C26 21.6051 25.561 22.6649 24.7796 23.4463C23.9982 24.2277 22.9384 24.6667 21.8333 24.6667H20.1667V28H16.8333V24.6667H12.6667V21.3333Z" fill="white"/>
</svg>
