<svg width="48" height="48" viewBox="0 0 48 48" fill="none" xmlns="http://www.w3.org/2000/svg">
<g clip-path="url(#clip0_1200_1354)">
<path d="M44.5398 32.3469L44.0992 30.1438H39.1759L38.3926 32.3312L34.4466 32.3391C36.3251 27.8215 38.2078 23.3056 40.0944 18.7913C40.4156 18.0256 40.9854 17.6359 41.8256 17.6398C42.4679 17.6457 43.5156 17.6457 44.9706 17.6418L48.0217 32.341L44.5398 32.3469ZM40.2844 27.126H43.4569L42.2721 21.6035L40.2844 27.126ZM14.8476 17.6379L18.8151 17.6418L12.6816 32.3489L8.6651 32.3449C7.65509 28.4602 6.65764 24.5723 5.67277 20.6811C5.47694 19.9056 5.08919 19.3632 4.34306 19.1066C3.67919 18.8775 2.57273 18.525 1.02173 18.0452V17.6437H7.36085C8.45752 17.6437 9.0979 18.1744 9.30352 19.2633C9.5111 20.3541 10.032 23.131 10.8702 27.594L14.8476 17.6379ZM24.2671 17.6418L21.1299 32.3449L17.3542 32.341L20.4876 17.6379L24.2671 17.6418ZM31.9242 17.3696C33.0542 17.3696 34.4779 17.7221 35.2965 18.0452L34.6346 21.0943C33.8943 20.7967 32.6762 20.3952 31.652 20.4089C30.1637 20.4344 29.2433 21.0591 29.2433 21.6583C29.2433 22.6336 30.8413 23.1251 32.4863 24.1904C34.3643 25.4046 34.6111 26.4954 34.5876 27.6802C34.5621 30.1399 32.4863 32.5662 28.1074 32.5662C26.1099 32.5369 25.3893 32.3684 23.7599 31.7907L24.4493 28.6084C26.108 29.3037 26.811 29.5249 28.2289 29.5249C29.5272 29.5249 30.6415 29.0001 30.6513 28.0856C30.6591 27.4354 30.2596 27.1123 28.8026 26.3094C27.3456 25.5045 25.3011 24.3902 25.3286 22.1538C25.3619 19.2907 28.0741 17.3696 31.9262 17.3696H31.9242Z" fill="white"/>
</g>
<defs>
<clipPath id="clip0_1200_1354">
<rect width="48" height="48" fill="white"/>
</clipPath>
</defs>
</svg>
